{"title":"Oo! Fxxx! - Short Film 720p x264 MP3 [TMB] - Hindi","uid":10084085,"size":92270256,"categoryP":"video","categoryS":"other","magnet":"?xt=urn:btih:851adc4140c3b56c007e10ceeac39765a0ae0f98&amp;dn=Oo%21+Fxxx%21+-+Short+Film+720p+x264+MP3+%5BTMB%5D+-+Hindi&amp;tr=udp%3A%2F%2Ftracker.openbittorrent.com%3A80&amp;tr=udp%3A%2F%2Fopen.demonii.com%3A1337&amp;tr=udp%3A%2F%2Ftracker.coppersurfer.tk%3A6969&amp;tr=udp%3A%2F%2Fexodus.desync.com%3A6969","seeders":0,"leechers":1,"uploader":"SJonam","files":2,"time":1399065469,"description":"The Mumbai Boys [TMB] Release...\n\nOo! Fxxx! - Short Film 720p x264 MP3 [TMB]\n &lt;a href=&quot;\nhttp://s22.postimg.org/ayu5qcc01/vlcsnap_2014_04_11_00h04m23s99.png&quot; rel=&quot;nofollow&quot; target=&quot;_NEW&quot;&gt;\nhttp://s22.postimg.org/ayu5qcc01/vlcsnap_2014_04_11_00h04m23s99.png&lt;/a&gt; &lt;a href=&quot;\nhttp://s22.postimg.org/a4c7i1tj5/vlcsnap_2014_04_11_00h04m31s176.png&quot; rel=&quot;nofollow&quot; target=&quot;_NEW&quot;&gt;\nhttp://s22.postimg.org/a4c7i1tj5/vlcsnap_2014_04_11_00h04m31s176.png&lt;/a&gt; &lt;a href=&quot;\nhttp://s22.postimg.org/pw7853em9/vlcsnap_2014_04_11_00h04m39s3.png&quot; rel=&quot;nofollow&quot; target=&quot;_NEW&quot;&gt;\nhttp://s22.postimg.org/pw7853em9/vlcsnap_2014_04_11_00h04m39s3.png&lt;/a&gt; &lt;a href=&quot;\nhttp://s22.postimg.org/yiahpoqm9/vlcsnap_2014_04_11_00h04m49s102.png&quot; rel=&quot;nofollow&quot; target=&quot;_NEW&quot;&gt;\nhttp://s22.postimg.org/yiahpoqm9/vlcsnap_2014_04_11_00h04m49s102.png&lt;/a&gt; &lt;a href=&quot;\nhttp://s22.postimg.org/vpcorx0w1/vlcsnap_2014_04_11_00h05m03s247.png&quot; rel=&quot;nofollow&quot; target=&quot;_NEW&quot;&gt;\nhttp://s22.postimg.org/vpcorx0w1/vlcsnap_2014_04_11_00h05m03s247.png&lt;/a&gt; &lt;a href=&quot;\nhttp://s22.postimg.org/kuv8pzhs1/vlcsnap_2014_04_11_00h05m11s66.png&quot; rel=&quot;nofollow&quot; target=&quot;_NEW&quot;&gt;\nhttp://s22.postimg.org/kuv8pzhs1/vlcsnap_2014_04_11_00h05m11s66.png&lt;/a&gt; &lt;a href=&quot;\nhttp://s22.postimg.org/5wctvk2pt/vlcsnap_2014_04_11_00h05m21s173.png&quot; rel=&quot;nofollow&quot; target=&quot;_NEW&quot;&gt;\nhttp://s22.postimg.org/5wctvk2pt/vlcsnap_2014_04_11_00h05m21s173.png&lt;/a&gt;\n\n\nInfo - \nA cosmopolitan girl falls in love with her college boyfriend (who is a fashion photographer) whom she happens to meet after several years luck by chance but when their relation grows to the stage of commitment the guy completely denies any seriousness... why ?\n\n\nMedia Info - \nGeneral\nComplete name                  : Oo! Fxxx! - Short Film 720p x264 MP3 [TMB].avi\nFormat                         : AVI\nFormat/Info                    : Audio Video Interleave\nFile size                      : 77.0 MiB\nDuration                       : 8mn 2s\nOverall bit rate               : 1 338 Kbps\nWriting application            : Lavf54.63.104\n\nVideo\nFormat                         : AVC\nFormat/Info                    : Advanced Video Codec\nFormat profile                 : &lt;a class=&quot;__cf_email__&quot; href=&quot;/cdn-cgi/l/email-protection&quot; data-cfemail=&quot;0c416d65624c403f223d&quot;&gt;[email&amp;#160;protected]&lt;/a&gt;&lt;script cf-hash='f9e31' type=&quot;text/javascript&quot;&gt;\n/* &lt;![CDATA[ */!function(){try{var t=&quot;currentScript&quot;in document?document.currentScript:function(){for(var t=document.getElementsByTagName(&quot;script&quot;),e=t.length;e--;)if(t[e].getAttribute(&quot;cf-hash&quot;))return t[e]}();if(t&amp;&amp;t.previousSibling){var e,r,n,i,c=t.previousSibling,a=c.getAttribute(&quot;data-cfemail&quot;);if(a){for(e=&quot;&quot;,r=parseInt(a.substr(0,2),16),n=2;a.length-n;n+=2)i=parseInt(a.substr(n,2),16)^r,e+=String.fromCharCode(i);e=document.createTextNode(e),c.parentNode.replaceChild(e,c)}}}catch(u){}}();/* ]]&gt; */&lt;/script&gt;\nFormat settings, CABAC         : Yes\nFormat settings, ReFrames      : 1 frame\nCodec ID                       : H264\nDuration                       : 8mn 2s\nBit rate                       : 1 110 Kbps\nWidth                          : 1 280 pixels\nHeight                         : 720 pixels\nDisplay aspect ratio           : 16:9\nFrame rate mode                : Variable\nFrame rate                     : 29.970 fps\nColor space                    : YUV\nChroma subsampling             : 4:2:0\nBit depth                      : 8 bits\nScan type                      : Progressive\nBits/(Pixel*Frame)             : 0.040\nStream size                    : 61.5 MiB (80%)\nWriting library                : x264 core 129\n\nAudio\nFormat                         : MPEG Audio\nFormat version                 : Version 1\nFormat profile                 : Layer 3\nMode                           : Joint stereo\nCodec ID                       : 55\nCodec ID/Hint                  : MP3\nDuration                       : 8mn 2s\nBit rate mode                  : Constant\nBit rate                       : 256 Kbps\nChannel(s)                     : 2 channels\nSampling rate                  : 44.1 KHz\nCompression mode               : Lossy\nStream size                    : 14.7 MiB (19%)\nAlignment                      : Aligned on interleaves\nInterleave, duration           : 26 ms (0.78 video frame)\nWriting library                : LAME3.99.5\n\nSample in Torrent...\n\nRipper : Manojvb\n\nSpecial Thanks to Phantom...\n\nSeeding will be very slow for first couple of hours then seeding 24x7... ;)\n\n\nEnjoy!\n","torrent":{"xt":"urn:btih:851adc4140c3b56c007e10ceeac39765a0ae0f98","amp;dn":"Oo%21+Fxxx%21+-+Short+Film+720p+x264+MP3+%5BTMB%5D+-+Hindi","amp;tr":["udp%3A%2F%2Ftracker.openbittorrent.com%3A80","udp%3A%2F%2Fopen.demonii.com%3A1337","udp%3A%2F%2Ftracker.coppersurfer.tk%3A6969","udp%3A%2F%2Fexodus.desync.com%3A6969"],"infoHash":"851adc4140c3b56c007e10ceeac39765a0ae0f98","infoHashBuffer":{"type":"Buffer","data":[133,26,220,65,64,195,181,108,0,126,16,206,234,195,151,101,160,174,15,152]},"announce":[],"urlList":[]}}